<?xml version="1.0" encoding="UTF-8" standalone="no"?><!DOCTYPE svg PUBLIC "-//W3C//DTD SVG 1.1//EN" "http://www.w3.org/Graphics/SVG/1.1/DTD/svg11.dtd"><svg width="100%" height="100%" viewBox="0 0 10417 10217" version="1.1" xmlns="http://www.w3.org/2000/svg" xmlns:xlink="http://www.w3.org/1999/xlink" xml:space="preserve" xmlns:serif="http://www.serif.com/" style="fill-rule:evenodd;clip-rule:evenodd;stroke-linejoin:round;stroke-miterlimit:2;"><path d="M2453.5,6223.64l-1874.77,0c0.356,9.239 0.593,18.358 1.066,27.478c0.711,17.648 2.014,35.177 3.08,52.824c0.474,7.58 0.829,15.16 1.421,22.622c1.421,20.371 3.198,40.743 5.093,60.996c0.474,4.619 0.829,9.238 1.303,13.621c2.132,22.621 4.619,45.243 7.225,67.628c0.118,2.132 0.355,4.382 0.71,6.514c2.961,24.162 6.041,48.442 9.594,72.485c-0,0.355 -0,0.711 0.118,0.948c21.615,149.789 53.993,297.826 96.883,442.962c0.237,0.592 0.474,1.184 0.593,1.776c6.751,22.977 13.857,45.718 21.082,68.34c0.473,1.302 0.947,2.724 1.302,4.027c0.356,1.302 0.83,2.605 1.303,4.026c6.633,20.49 13.621,40.862 20.609,61.352c1.776,5.093 3.553,10.304 5.448,15.515c6.277,17.648 12.673,35.295 19.305,53.061c3.08,7.936 6.041,15.871 9.002,23.925c5.803,14.686 11.37,29.254 17.174,43.822c4.382,11.015 8.882,22.03 13.502,32.926c4.737,11.489 9.475,22.741 14.331,34.229c5.922,13.976 12.199,27.833 18.358,41.809c3.671,8.291 7.461,16.463 11.133,24.754c7.58,16.7 15.397,33.4 23.333,49.981c2.605,5.33 5.092,10.66 7.698,15.871c9.238,19.187 18.595,38.019 28.07,56.851c1.658,2.842 2.961,5.803 4.501,8.646c10.659,20.845 21.556,41.572 32.807,62.18c0.474,0.948 1.066,1.777 1.422,2.843c2.368,4.264 4.974,8.409 7.343,12.673l1601.18,-964.449l5.922,-3.554c-63.128,-133.125 -102.45,-274.778 -117.137,-418.682Z" style="fill:#6c757d;fill-rule:nonzero;"/><path d="M2914.35,7084.34l-4.501,4.501l-1320.6,1320.48c6.751,6.277 13.502,12.791 20.489,18.832c12.318,11.251 24.873,22.266 37.309,33.281c6.514,5.685 12.791,11.37 19.305,17.055c14.924,12.91 30.084,25.465 45.126,38.138c4.145,3.434 8.054,6.751 12.199,10.185c19.192,15.794 38.578,31.35 58.153,46.665c18.714,14.805 37.546,29.136 56.733,43.586c0.829,0.474 1.421,0.948 2.132,1.54c79.677,59.528 162.124,115.256 247.064,166.999c2.842,1.895 5.803,3.553 8.764,5.448c16.226,9.594 32.334,19.187 48.679,28.662l29.846,17.056c9.475,5.448 18.832,10.659 28.307,15.87c17.174,9.357 34.347,18.714 51.64,27.834c2.368,1.302 4.737,2.605 7.224,3.79c47.968,25.109 96.765,48.441 146.036,70.945l46.902,-113.82l664.206,-1612.79l2.369,-5.922c-72.485,-38.848 -142.009,-84.802 -207.387,-138.337Z" style="fill:#1f8787;fill-rule:nonzero;"/><path d="M2776.84,6952.75c-14.192,-15.796 -27.936,-31.989 -41.217,-48.56c-11.844,-14.568 -23.214,-29.254 -34.229,-44.178c-12.673,-17.055 -24.99,-34.347 -36.716,-51.876c-11.725,-17.647 -23.332,-35.413 -34.229,-53.416l-1603.19,965.634c24.635,40.98 50.218,80.775 76.512,120.097c0.829,1.421 1.658,2.843 2.605,4.145c0.237,0.593 0.593,0.948 0.948,1.54c0.829,1.185 1.658,2.606 2.487,3.909c0.119,0.118 0.237,0.237 0.237,0.473c2.132,3.08 4.264,6.159 6.396,9.357c0.118,0.119 0.237,0.355 0.474,0.592c0.236,0.237 0.118,0.119 0.118,0.237c27.833,41.099 56.495,81.605 85.987,121.163c0.592,0.829 1.303,1.658 1.895,2.488c0.71,0.829 1.303,1.658 1.895,2.487c12.91,16.937 25.701,33.873 38.966,50.692c1.777,2.25 3.435,4.382 5.33,6.514c13.502,17.41 27.359,34.584 41.454,51.521c3.316,4.027 6.751,8.054 10.067,12.199c12.673,15.16 25.346,30.202 38.256,45.125c5.566,6.396 11.252,12.91 16.937,19.187c11.014,12.555 21.911,25.11 33.163,37.427c6.158,6.751 12.554,13.621 18.831,20.372c2.843,3.198 5.685,6.159 8.646,9.356c8.173,8.883 16.345,17.766 24.636,26.531c3.316,3.435 6.869,6.869 10.185,10.422c14.568,15.161 29.373,30.439 44.297,45.363l1322.61,-1322.37c-15.16,-15.16 -29.373,-30.794 -43.349,-46.428Z" style="fill:#a3a76f;fill-rule:nonzero;"/><path d="M4529.86,7083.63c-14.568,11.726 -29.255,23.214 -44.178,34.229l3.198,5.567l964.331,1600.47c44.651,-29.136 88.829,-59.219 131.941,-90.843c93.33,-68.813 183.58,-143.429 270.633,-223.731l-1320.71,-1320.48l-5.211,-5.212Z" style="fill:#1f8787;fill-rule:nonzero;"/><path d="M5313.1,8737.04l-32.689,-54.364l-900.137,-1493.87c-18.239,10.897 -36.834,20.846 -55.429,30.794c-18.832,10.186 -37.664,19.543 -56.851,28.663c-172.921,81.96 -360.055,123.887 -547.544,123.887c-122.821,-0 -245.524,-17.766 -364.2,-53.179c-20.253,-6.041 -40.032,-13.976 -59.93,-21.082c-20.016,-6.988 -40.269,-13.147 -59.93,-21.201l-663.733,1611.72l-25.938,63.128l-22.267,54.127l-0.118,0.237c1.658,0.71 3.435,1.302 5.093,2.013c1.895,0.711 3.671,1.303 5.448,2.132l0.237,-0c0.474,0.237 0.947,0.355 1.303,0.474c15.634,6.514 31.386,11.962 47.139,18.121c19.779,7.698 39.44,15.515 59.219,22.74c10.186,3.672 20.135,7.936 30.202,11.489l0.118,-0c208.008,73.415 423.116,124.899 641.822,153.615c8.646,1.066 17.055,2.251 25.701,3.435c8.883,1.066 17.884,1.895 26.886,2.961c16.818,1.895 33.636,3.79 50.573,5.448l12.555,1.066c20.727,2.014 41.453,3.79 62.062,5.211c7.106,0.593 14.213,0.829 21.2,1.422c18.122,1.184 36.243,2.25 54.364,3.079c11.133,0.711 22.266,0.948 33.4,1.421c14.449,0.474 28.78,1.066 43.23,1.54c20.727,0.474 41.691,0.592 62.536,0.711c4.974,-0 9.83,0.118 14.805,0.237c174.697,-0 349.395,-14.568 522.198,-43.586c2.842,-0.474 5.803,-0.948 8.764,-1.303c18.24,-3.198 36.479,-6.632 54.719,-9.949c10.423,-2.013 20.964,-4.027 31.149,-6.04c10.66,-2.25 21.438,-4.382 32.097,-6.751c17.766,-3.672 35.532,-7.58 53.416,-11.726c3.198,-0.71 6.396,-1.302 9.594,-2.25c262.698,-61.115 516.394,-155.866 754.694,-281.293l-0,-0.118c15.634,-8.173 30.912,-17.529 46.428,-26.057c18.476,-10.067 36.834,-20.608 55.311,-31.149c12.673,-7.225 25.583,-13.976 38.256,-21.556c0.118,-0.119 0.237,-0.237 0.355,-0.237l0.118,-0c0.237,-0.119 0.356,-0.237 0.593,-0.355l0.237,-0.237l-2.369,-3.909l2.369,3.909c0.118,-0 0.236,-0.119 0.355,-0.119c0.237,-0.118 0.355,-0.237 0.592,-0.355c0.711,-0.474 1.421,-0.829 2.132,-1.303c4.027,-2.487 8.172,-4.856 12.318,-7.343l-32.453,-54.245Zm-2398.04,-3626.84c14.568,-11.844 29.373,-23.214 44.178,-34.348l-3.198,-5.448l-964.331,-1600.59c-44.769,29.254 -88.947,59.456 -132.178,91.079c-93.211,68.695 -183.58,143.193 -270.396,223.376l1320.71,1320.6l5.211,5.33Z" style="fill:#6c757d;fill-rule:nonzero;"/><path d="M1497.58,3872.27c-15.042,15.042 -29.255,30.558 -43.941,45.718c-14.568,15.279 -29.492,30.439 -43.823,45.836c-96.423,104.241 -185.692,214.878 -267.198,331.156c-3.909,5.329 -7.699,11.014 -11.607,16.463c-9.002,13.265 -18.003,26.411 -26.767,39.677c-9.239,13.739 -18.359,27.714 -27.241,41.572c-3.317,5.093 -6.633,10.304 -9.831,15.397c-303.796,476.48 -466.531,1016.92 -488.443,1561.86c-0.829,21.2 -1.302,42.401 -1.776,63.483c-0.356,21.082 -1.066,42.283 -1.066,63.365l1870.51,0c0,-21.082 1.895,-42.164 3.079,-63.365c1.066,-21.2 1.303,-42.401 3.435,-63.483c24.162,-243.511 118.202,-481.337 282.122,-681.025c13.265,-16.226 28.307,-31.505 42.638,-47.139c14.094,-15.752 27.36,-31.978 42.52,-47.138l-1322.61,-1322.37Zm3859.34,-464.281c-2.487,-1.539 -5.212,-3.079 -7.699,-4.619c-16.463,-10.067 -33.044,-19.779 -49.744,-29.491c-9.594,-5.567 -19.306,-11.015 -28.899,-16.463c-9.831,-5.448 -19.424,-10.897 -29.255,-16.226c-16.912,-9.205 -33.849,-18.365 -50.81,-27.478c-2.724,-1.303 -5.33,-2.724 -8.054,-4.146c-109.675,-57.324 -222.31,-107.779 -337.314,-151.602c-2.961,-1.184 -5.922,-2.368 -8.883,-3.434c-25.109,-9.357 -50.219,-18.714 -75.565,-27.478c-204.399,-71.295 -415.578,-121.421 -630.214,-149.589l-26.293,-3.553c-8.883,-1.066 -17.648,-1.895 -26.412,-2.842c-16.937,-2.014 -33.755,-3.909 -50.811,-5.567c-4.619,-0.474 -9.356,-0.711 -14.212,-1.303c-20.016,-1.776 -40.27,-3.553 -60.404,-5.093l-23.57,-1.421c-17.173,-1.066 -34.702,-2.369 -51.876,-3.079c-9.238,-0.474 -18.476,-0.829 -27.596,-1.066l-0,1874.77c96.172,9.949 191.516,30.439 284.017,61.825l1379.93,-1379.7c-51.284,-35.532 -103.042,-70.116 -156.339,-102.45Z" style="fill:#1f8787;fill-rule:nonzero;"/><path d="M3659.09,2952c-21.201,0.474 -42.401,0.474 -63.484,1.303c-132.296,5.33 -264.356,18.832 -395.349,40.861c-2.843,0.474 -5.685,0.948 -8.646,1.421c-18.358,3.198 -36.598,6.515 -54.838,9.949c-10.304,2.014 -20.726,3.909 -31.149,5.922c-10.778,2.132 -21.438,4.383 -32.215,6.751c-17.766,3.672 -35.532,7.58 -53.18,11.726c-3.316,0.592 -6.514,1.421 -9.712,2.132c-262.553,61.3 -516.209,155.869 -754.812,281.411c-15.515,8.291 -30.676,17.647 -46.191,26.057c-18.477,10.185 -36.953,20.608 -55.311,31.149c-13.621,7.935 -27.478,15.16 -41.098,23.214c-0.119,0.119 -0.356,0.237 -0.474,0.237c-0.948,0.592 -1.895,1.184 -2.843,1.658c-3.553,2.25 -7.225,4.027 -10.778,6.159l0.119,0.237l32.807,54.363l932.708,1548.35c18.24,-10.896 36.835,-20.963 55.43,-30.912c18.713,-10.068 37.663,-19.543 56.732,-28.544c131.812,-62.91 273.492,-102.617 418.8,-117.373c21.083,-2.132 42.165,-3.909 63.365,-4.975c21.082,-1.066 42.283,-2.132 63.484,-2.132l-0,-1870.27c-21.201,0 -42.283,0.948 -63.365,1.303Z" style="fill:#a3a77e;fill-rule:nonzero;"/><path d="M6865.12,5942.23c-0.948,-16.818 -1.895,-33.518 -3.08,-50.455c-0.434,-8.377 -0.987,-16.748 -1.658,-25.109c-1.303,-19.779 -2.961,-39.559 -4.856,-59.338c-0.355,-5.093 -0.829,-10.186 -1.303,-15.279c-2.131,-22.148 -4.5,-44.177 -7.106,-66.207c-0.237,-1.777 -0.355,-3.553 -0.592,-5.33l-0.355,-2.487c-2.843,-23.806 -6.041,-47.613 -9.357,-71.3l-0.355,-2.251c-21.593,-149.5 -53.892,-297.258 -96.647,-442.133c-0.355,-1.066 -0.592,-1.895 -0.947,-2.842c-6.751,-22.622 -13.739,-45.007 -20.727,-67.392c-1.066,-2.961 -2.013,-5.922 -2.961,-8.883c-6.633,-20.253 -13.384,-40.388 -20.372,-60.522l-5.685,-16.345c-6.158,-17.411 -12.554,-34.821 -18.95,-52.232c-3.198,-8.29 -6.277,-16.581 -9.593,-24.753c-5.449,-14.45 -11.015,-28.781 -16.819,-42.994c-4.5,-11.488 -9.12,-22.74 -13.739,-33.873c-4.619,-11.252 -9.356,-22.267 -13.975,-33.4c-6.159,-14.213 -12.437,-28.426 -18.714,-42.52c-3.553,-7.935 -7.106,-15.989 -10.778,-24.043c-7.698,-16.818 -15.634,-33.755 -23.569,-50.573c-2.487,-4.975 -4.975,-10.186 -7.462,-15.279c-9.238,-19.187 -18.713,-38.493 -28.425,-57.443c-1.303,-2.606 -2.724,-5.33 -4.027,-7.935c-10.778,-20.964 -21.911,-42.046 -33.045,-62.773c-0.473,-0.711 -0.829,-1.54 -1.302,-2.25c-54.386,-99.954 -114.126,-196.899 -178.962,-290.413l-1380.29,1380.29c31.387,92.501 51.758,187.844 61.707,283.898l1875.13,0c-0.473,-9.356 -0.71,-18.713 -1.184,-27.833Z" style="fill:#1f8787;fill-rule:nonzero;"/><path d="M4998.52,6096.79c0,21.201 -2.013,42.283 -3.079,63.483c-1.066,21.201 -1.422,42.402 -3.553,63.365c-24.162,243.63 -118.084,481.455 -282.004,681.262c-13.265,16.226 -28.307,31.386 -42.638,47.139c-14.213,15.634 -27.359,31.86 -42.52,47.02l1322.61,1322.37c15.041,-15.042 29.136,-30.557 43.822,-45.836c14.686,-15.278 29.61,-30.32 43.822,-45.836c97.831,-106.003 187.371,-216.862 267.91,-332.103c3.316,-4.619 6.277,-9.12 9.475,-13.62c9.83,-14.095 19.305,-28.426 29.017,-42.638c8.409,-12.792 16.819,-25.465 24.991,-38.375c4.145,-6.158 8.172,-12.554 12.081,-18.713c303.322,-476.244 465.702,-1016.09 487.495,-1560.67c0.829,-21.082 1.303,-42.282 1.658,-63.483c0.474,-21.082 1.066,-42.164 1.066,-63.365l-1870.15,0Z" style="fill:#a3a77e;fill-rule:nonzero;"/><path d="M7424.39,2395.22c-342.17,-342.171 -896.939,-342.171 -1239.11,-0c-273.002,272.883 -327.603,680.906 -164.986,1008.51l-1908.76,1908.64c-327.603,-162.498 -735.744,-108.016 -1008.75,164.867c-342.17,342.171 -342.052,896.939 0,1239.11c342.289,342.17 897.176,342.052 1239.35,-0c273.002,-273.002 327.484,-681.025 164.867,-1008.63l1908.76,-1908.53c327.721,162.498 735.625,108.016 1008.63,-164.986c342.171,-342.052 342.171,-896.821 0,-1238.99Z" style="fill:#424143;fill-rule:nonzero;"/></svg>